# xmcd CD database file
#
# Track frame offsets:
#	150
#	16981
#	31984
#	50397
#	69836
#	85825
#	100256
#	111299
#	127505
#	145704
#	164303
#	181370
#	199770
#	216515
#	235065
#	255185
#	271957
#	286519
#	297672
#	323338
#
# Disc length: 4489 seconds
#
# Revision: 0
# Processed by: cddbd v1.5.2PL0 Copyright (c) Steve Scherf et al.
# Submitted via: CDex 1.51
#
DISCID=0c118714
DTITLE=Various Artist - Country Australia
DYEAR=2008
DGENRE=Country
TTITLE0=Kasey Chambers - Rattlin' Bones
TTITLE1=The McClymonts - Favourite Boyfriend of the Year
TTITLE2=Steve Forde - Drinkin' Things Over
TTITLE3=The Wolverines - Diamantina
TTITLE4=Lou Bradley - Too Far Gone
TTITLE5=Rob Black - My Own TV Show
TTITLE6=Jim Haynes - Holiday
TTITLE7=Col Finley - My Place
TTITLE8=Jayne Denham - Cousin Jude
TTITLE9=Danny Mack and "One Mighty Fine Band" - Time of Thunder
TTITLE10=The Bostocks - In The Neighbourhood
TTITLE11=Jessica Belle - On My Own
TTITLE12=Matt Scullion and The Lost Moments - Put It Down To Experience
TTITLE13=Adam James - The Country Singer
TTITLE14=Luella and the Heelers - When I Found The Blues
TTITLE15=Sally-Anne Whitten - Maybe It's You
TTITLE16=Danny Hooper - Already Gone
TTITLE17=Reno James - Rabbit Proof Fence
TTITLE18=Redfish Bluegrass - Blackjack Country Chain 
TTITLE19=Kel-Anne Brandt - Go Away, Come Back
EXTD=YEAR: 2008
EXTT0=
EXTT1=
EXTT2=
EXTT3=
EXTT4=
EXTT5=
EXTT6=
EXTT7=
EXTT8=
EXTT9=
EXTT10=
EXTT11=
EXTT12=
EXTT13=
EXTT14=
EXTT15=
EXTT16=
EXTT17=
EXTT18=
EXTT19=
PLAYORDER=
